<svg width="366.239502" height="343.299530" viewBox="0 0 366.24 343.3" fill="none" xmlns="http://www.w3.org/2000/svg" xmlns:xlink="http://www.w3.org/1999/xlink">
	<desc>
			Created with Pixso.
	</desc>
	<defs/>
	<path id="Vector" d="M228.884 12.8653L313.311 158.79C317.915 166.749 317.915 176.554 313.311 184.513L228.884 330.438C224.28 338.397 215.77 343.3 206.561 343.3L256.036 343.3C265.246 343.3 273.756 338.397 278.36 330.438L362.786 184.513C367.391 176.554 367.391 166.749 362.786 158.79L278.36 12.8653C273.756 4.90613 265.245 0.00341797 256.036 0.00341797L206.561 0.00341797C215.77 0.00341797 224.28 4.90613 228.884 12.8653Z" fill="#39435A" fill-opacity="1.000000" fill-rule="nonzero"/>
	<path id="Vector" d="M228.884 12.8653L232.646 19.3674C239.04 19.4607 245.681 19.9849 252.459 20.9792C265.947 22.9592 278.381 26.5681 289.004 31.2657L278.357 12.8653C273.756 4.90613 265.246 0.00341797 256.036 0.00341797L206.561 0.00341797C215.77 0.00341797 224.28 4.90613 228.884 12.8653Z" fill="#2C374C" fill-opacity="1.000000" fill-rule="nonzero"/>
	<path id="Vector" d="M133.642 12.8653L218.068 158.79C222.673 166.749 222.673 176.554 218.068 184.513L133.642 330.438C129.038 338.397 120.528 343.3 111.318 343.3L160.794 343.3C170.004 343.3 178.514 338.397 183.118 330.438L267.544 184.513C272.148 176.554 272.148 166.749 267.544 158.79L183.118 12.8653C178.512 4.90613 170.002 0.00341797 160.793 0.00341797L111.318 0.00341797C120.527 0.00341797 129.037 4.90613 133.642 12.8653Z" fill="#39435A" fill-opacity="1.000000" fill-rule="nonzero"/>
	<path id="Vector" d="M137.355 330.434L52.9288 184.51C48.3246 176.551 48.3246 166.745 52.9288 158.786L137.355 12.8619C141.959 4.90271 150.469 0 159.679 0L110.203 0C100.994 0 92.4838 4.90271 87.8795 12.8619L3.45312 158.786C-1.151 166.745 -1.151 176.551 3.45312 184.51L87.8795 330.434C92.4838 338.393 100.994 343.296 110.203 343.296L159.679 343.296C150.469 343.296 141.959 338.393 137.355 330.434Z" fill="#435F94" fill-opacity="1.000000" fill-rule="nonzero"/>
	<path id="Vector" d="M186.132 330.435L101.706 184.511C97.1014 176.552 97.1014 166.746 101.706 158.787L186.132 12.8629C190.736 4.90613 199.246 0.00341797 208.456 0.00341797L158.98 0.00341797C149.77 0.00341797 141.261 4.90613 136.656 12.8653L52.23 158.79C47.6259 166.749 47.6259 176.554 52.23 184.513L136.656 330.438C141.261 338.397 149.77 343.3 158.98 343.3L208.456 343.3C199.246 343.297 190.736 338.394 186.132 330.435Z" fill="#377DFF" fill-opacity="1.000000" fill-rule="nonzero"/>
	<path id="Vector" d="M235.853 330.435L151.426 184.511C146.822 176.552 146.822 166.746 151.426 158.787L235.853 12.8629C240.457 4.90613 248.967 0.00341797 258.176 0.00341797L208.701 0.00341797C199.491 0.00341797 190.981 4.90613 186.377 12.8653L101.95 158.79C97.3463 166.749 97.3463 176.554 101.95 184.513L186.377 330.438C190.981 338.397 199.491 343.3 208.701 343.3L258.176 343.3C248.967 343.297 240.457 338.394 235.853 330.435Z" fill="#37DBFF" fill-opacity="1.000000" fill-rule="nonzero"/>
</svg>
