<svg width="100.000000" height="100.000000" viewBox="0 0 100 100" fill="none" xmlns="http://www.w3.org/2000/svg" xmlns:xlink="http://www.w3.org/1999/xlink">
	<desc>
			Created with Pixso.
	</desc>
	<defs>
		<clipPath id="clip1_1282">
			<rect id="pen-tool" width="42.000000" height="42.000000" transform="translate(29.000000 29.000000)" fill="white" fill-opacity="0"/>
		</clipPath>
	</defs>
	<circle id="Ellipse 55" cx="50.000000" cy="50.000000" r="50.000000" fill="#7CE761" fill-opacity="1.000000"/>
	<rect id="pen-tool" width="42.000000" height="42.000000" transform="translate(29.000000 29.000000)" fill="#FFFFFF" fill-opacity="0"/>
	<g clip-path="url(#clip1_1282)">
		<path id="Vector" d="M62.25 50L67.5 55.25L55.25 67.5L50 62.25L62.25 50Z" stroke="#FFFFFF" stroke-opacity="1.000000" stroke-width="3.000000" stroke-linejoin="round"/>
		<path id="Vector" d="M57.875 38.625L32.5 32.5L38.625 57.875L51.75 60.5L60.5 51.75L57.875 38.625Z" stroke="#FFFFFF" stroke-opacity="1.000000" stroke-width="3.000000" stroke-linejoin="round"/>
		<path id="Vector" d="M32.5 32.5L45.7754 45.7755" stroke="#FFFFFF" stroke-opacity="1.000000" stroke-width="3.000000" stroke-linejoin="round" stroke-linecap="round"/>
		<path id="Vector" d="M48.25 51.75C46.3169 51.75 44.75 50.183 44.75 48.25C44.75 46.317 46.3169 44.75 48.25 44.75C50.1831 44.75 51.75 46.317 51.75 48.25C51.75 50.183 50.1831 51.75 48.25 51.75Z" stroke="#FFFFFF" stroke-opacity="1.000000" stroke-width="3.000000" stroke-linejoin="round"/>
	</g>
</svg>
