<svg width="477" height="175" viewBox="0 0 477 175" fill="none" xmlns="http://www.w3.org/2000/svg">
<path d="M116.676 6.55817L159.713 80.9444C162.06 85.0016 162.06 90 159.713 94.0573L116.676 168.444C114.329 172.501 109.991 175 105.296 175H130.517C135.211 175 139.549 172.501 141.896 168.444L184.934 94.0573C187.281 90 187.281 85.0016 184.934 80.9444L141.896 6.55817C139.549 2.5009 135.211 0.00170898 130.517 0.00170898H105.296C109.991 0.00170898 114.329 2.5009 116.676 6.55817Z" fill="#39435A"/>
<path d="M116.676 6.55817L118.593 9.87269C121.853 9.92024 125.238 10.1874 128.693 10.6943C135.569 11.7036 141.907 13.5433 147.322 15.938L141.895 6.55817C139.549 2.5009 135.211 0.00170898 130.517 0.00170898H105.296C109.991 0.00170898 114.329 2.5009 116.676 6.55817Z" fill="#2C374C"/>
<path d="M68.1256 6.55817L111.163 80.9444C113.51 85.0016 113.51 90 111.163 94.0573L68.1256 168.444C65.7785 172.501 61.4406 175 56.7458 175H81.9665C86.6613 175 90.9992 172.501 93.3463 168.444L136.383 94.0573C138.73 90 138.73 85.0016 136.383 80.9444L93.3463 6.55817C90.9986 2.5009 86.6606 0.00170898 81.9659 0.00170898H56.7458C61.44 0.00170898 65.7779 2.5009 68.1256 6.55817Z" fill="#39435A"/>
<path d="M70.018 168.442L26.9809 94.0556C24.6339 89.9983 24.6339 85 26.9809 80.9427L70.018 6.55646C72.3651 2.49919 76.703 0 81.3978 0H56.1771C51.4824 0 47.1444 2.49919 44.7974 6.55646L1.76029 80.9427C-0.586764 85 -0.586764 89.9983 1.76029 94.0556L44.7974 168.442C47.1444 172.499 51.4824 174.998 56.1771 174.998H81.3978C76.703 174.998 72.3651 172.499 70.018 168.442Z" fill="#435F94"/>
<path d="M94.8825 168.442L51.8455 94.0561C49.4984 89.9988 49.4984 85.0004 51.8455 80.9431L94.8825 6.55692C97.2296 2.5009 101.568 0.00170898 106.262 0.00170898H81.0416C76.3469 0.00170898 72.009 2.5009 69.6619 6.55817L26.6248 80.9444C24.2777 85.0016 24.2777 90 26.6248 94.0573L69.6619 168.444C72.009 172.501 76.3469 175 81.0416 175H106.262C101.568 174.999 97.2296 172.5 94.8825 168.442Z" fill="#377DFF"/>
<path d="M120.228 168.442L77.1912 94.0561C74.8441 89.9988 74.8441 85.0004 77.1912 80.9431L120.228 6.55692C122.575 2.5009 126.913 0.00170898 131.608 0.00170898H106.387C101.693 0.00170898 97.3547 2.5009 95.0076 6.55817L51.9705 80.9444C49.6234 85.0016 49.6234 90 51.9705 94.0573L95.0076 168.444C97.3547 172.501 101.693 175 106.387 175H131.608C126.913 174.999 122.575 172.5 120.228 168.442Z" fill="#37DBFF"/>
<path d="M247.616 30.1454L232.557 65.56C232.232 66.4431 231.721 67.1402 231.024 67.6514C230.373 68.1162 229.653 68.3486 228.863 68.3486C227.608 68.3486 226.678 68 226.074 67.3029C225.47 66.6057 225.168 65.7459 225.168 64.7235C225.168 64.3052 225.238 63.8637 225.377 63.3989L242.736 21.7101C243.108 20.7805 243.665 20.0602 244.409 19.5489C245.199 19.0377 246.035 18.8286 246.919 18.9215C247.755 18.9215 248.522 19.1771 249.219 19.6884C249.963 20.1531 250.497 20.827 250.823 21.7101L267.972 62.5623C268.204 63.1665 268.321 63.7242 268.321 64.2355C268.321 65.4903 267.902 66.4895 267.066 67.2331C266.276 67.9768 265.393 68.3486 264.417 68.3486C263.58 68.3486 262.813 68.093 262.116 67.5817C261.465 67.0705 260.954 66.3733 260.582 65.4903L245.594 30.5637L247.616 30.1454ZM234.719 57.0549L238.553 49.0379H257.376L258.7 57.0549H234.719ZM289.7 30.006C291.652 30.006 293.441 30.3081 295.068 30.9123C296.695 31.5165 298.089 32.2833 299.251 33.2128C300.459 34.1423 301.389 35.0951 302.039 36.0711C302.736 37.0006 303.085 37.7907 303.085 38.4414L301.272 39.3476V34.2585C301.272 33.0502 301.667 32.0509 302.458 31.2608C303.248 30.4243 304.247 30.006 305.455 30.006C306.664 30.006 307.663 30.401 308.453 31.1911C309.243 31.9812 309.638 33.0037 309.638 34.2585V65.2812C309.638 69.3246 308.755 72.5546 306.989 74.9714C305.269 77.4346 302.992 79.2007 300.157 80.2696C297.322 81.385 294.278 81.9428 291.024 81.9428C290.095 81.9428 288.887 81.8266 287.399 81.5942C285.912 81.3618 284.495 81.0829 283.147 80.7576C281.799 80.4323 280.777 80.1302 280.079 79.8513C278.685 79.2472 277.709 78.4803 277.151 77.5508C276.64 76.6677 276.547 75.715 276.873 74.6925C277.291 73.3447 277.965 72.4152 278.894 71.904C279.824 71.4392 280.8 71.3927 281.822 71.7645C282.287 71.904 283.054 72.1828 284.123 72.6011C285.192 73.0194 286.354 73.3912 287.608 73.7165C288.91 74.0883 290.048 74.2742 291.024 74.2742C294.51 74.2742 297.09 73.5771 298.763 72.1828C300.436 70.7886 301.272 68.8598 301.272 66.3966V60.3315L302.109 60.9589C302.109 61.5631 301.784 62.3067 301.133 63.1898C300.529 64.0263 299.669 64.8629 298.554 65.6994C297.485 66.536 296.207 67.2564 294.719 67.8606C293.232 68.4183 291.652 68.6971 289.979 68.6971C286.679 68.6971 283.705 67.8838 281.055 66.2572C278.406 64.584 276.315 62.3067 274.781 59.4252C273.247 56.4972 272.481 53.151 272.481 49.3864C272.481 45.5754 273.247 42.2291 274.781 39.3476C276.315 36.4197 278.383 34.1423 280.986 32.5157C283.588 30.8426 286.493 30.006 289.7 30.006ZM291.024 37.6745C288.933 37.6745 287.097 38.1857 285.517 39.2082C283.937 40.2307 282.705 41.625 281.822 43.391C280.939 45.1571 280.498 47.1556 280.498 49.3864C280.498 51.5708 280.939 53.546 281.822 55.3121C282.705 57.0782 283.937 58.4725 285.517 59.4949C287.097 60.5174 288.933 61.0286 291.024 61.0286C293.162 61.0286 295.021 60.5174 296.602 59.4949C298.182 58.4725 299.413 57.0782 300.296 55.3121C301.179 53.546 301.621 51.5708 301.621 49.3864C301.621 47.1556 301.179 45.1571 300.296 43.391C299.413 41.625 298.182 40.2307 296.602 39.2082C295.021 38.1857 293.162 37.6745 291.024 37.6745ZM335.583 68.6971C331.633 68.6971 328.193 67.8838 325.265 66.2572C322.384 64.584 320.153 62.3299 318.573 59.4949C317.039 56.6599 316.272 53.4531 316.272 49.8744C316.272 45.6916 317.109 42.1362 318.782 39.2082C320.502 36.2338 322.732 33.9564 325.475 32.3763C328.217 30.7961 331.121 30.006 334.189 30.006C336.559 30.006 338.79 30.494 340.881 31.47C343.019 32.446 344.901 33.7938 346.528 35.5134C348.155 37.1865 349.433 39.1385 350.362 41.3693C351.338 43.6002 351.826 45.9705 351.826 48.4801C351.78 49.5956 351.338 50.5018 350.502 51.199C349.665 51.8961 348.689 52.2447 347.574 52.2447H320.943L318.852 45.2733H344.437L342.903 46.6676V44.7853C342.81 43.4375 342.322 42.2291 341.439 41.1602C340.602 40.0913 339.533 39.2547 338.232 38.6505C336.977 37.9998 335.629 37.6745 334.189 37.6745C332.794 37.6745 331.493 37.8604 330.285 38.2322C329.076 38.604 328.031 39.2315 327.148 40.1145C326.265 40.9975 325.567 42.1827 325.056 43.6699C324.545 45.1571 324.289 47.0394 324.289 49.3167C324.289 51.8264 324.801 53.9643 325.823 55.7304C326.892 57.45 328.24 58.7745 329.866 59.7041C331.54 60.5871 333.306 61.0286 335.165 61.0286C336.884 61.0286 338.255 60.8892 339.278 60.6103C340.3 60.3315 341.114 60.0062 341.718 59.6343C342.368 59.2161 342.949 58.8675 343.461 58.5886C344.297 58.1704 345.087 57.9612 345.831 57.9612C346.853 57.9612 347.69 58.3098 348.341 59.0069C349.038 59.7041 349.386 60.5174 349.386 61.4469C349.386 62.7018 348.736 63.8404 347.434 64.8629C346.226 65.8853 344.53 66.7916 342.345 67.5817C340.161 68.3253 337.907 68.6971 335.583 68.6971ZM379.771 30.006C383.21 30.006 385.812 30.7264 387.579 32.1671C389.391 33.6079 390.623 35.5366 391.273 37.9534C391.971 40.3236 392.319 42.9728 392.319 45.9007V63.7475C392.319 64.9558 391.924 65.9783 391.134 66.8149C390.344 67.605 389.345 68 388.136 68C386.928 68 385.929 67.605 385.139 66.8149C384.349 65.9783 383.953 64.9558 383.953 63.7475V45.9007C383.953 44.367 383.744 42.996 383.326 41.7876C382.954 40.5328 382.257 39.5335 381.235 38.7899C380.212 38.0463 378.748 37.6745 376.843 37.6745C374.984 37.6745 373.403 38.0463 372.102 38.7899C370.847 39.5335 369.871 40.5328 369.174 41.7876C368.523 42.996 368.198 44.367 368.198 45.9007V63.7475C368.198 64.9558 367.803 65.9783 367.013 66.8149C366.223 67.605 365.224 68 364.015 68C362.807 68 361.808 67.605 361.018 66.8149C360.228 65.9783 359.832 64.9558 359.832 63.7475V34.9557C359.832 33.7473 360.228 32.7481 361.018 31.958C361.808 31.1214 362.807 30.7031 364.015 30.7031C365.224 30.7031 366.223 31.1214 367.013 31.958C367.803 32.7481 368.198 33.7473 368.198 34.9557V37.9534L367.152 37.7442C367.571 36.9541 368.175 36.1176 368.965 35.2345C369.755 34.305 370.685 33.4452 371.754 32.6551C372.822 31.865 374.031 31.2376 375.379 30.7728C376.726 30.2616 378.19 30.006 379.771 30.006ZM418.65 30.006C421.299 30.006 423.6 30.2849 425.552 30.8426C427.55 31.4003 429.084 32.1904 430.153 33.2128C431.268 34.1888 431.826 35.374 431.826 36.7682C431.826 37.6978 431.547 38.5808 430.99 39.4174C430.432 40.2074 429.619 40.6025 428.55 40.6025C427.806 40.6025 427.179 40.5095 426.667 40.3236C426.203 40.0913 425.784 39.8124 425.412 39.4871C425.041 39.1617 424.599 38.8596 424.088 38.5808C423.623 38.3019 422.903 38.0928 421.927 37.9534C420.997 37.7675 420.3 37.6745 419.835 37.6745C417.465 37.6745 415.443 38.1857 413.77 39.2082C412.144 40.2307 410.889 41.625 410.006 43.391C409.123 45.1106 408.681 47.1091 408.681 49.3864C408.681 51.6173 409.123 53.6157 410.006 55.3818C410.935 57.1014 412.19 58.4725 413.77 59.4949C415.397 60.5174 417.256 61.0286 419.347 61.0286C420.509 61.0286 421.508 60.9589 422.345 60.8195C423.182 60.6801 423.879 60.4709 424.436 60.1921C425.087 59.8203 425.668 59.4252 426.179 59.0069C426.691 58.5886 427.457 58.3795 428.48 58.3795C429.688 58.3795 430.618 58.7745 431.268 59.5646C431.919 60.3082 432.244 61.2378 432.244 62.3532C432.244 63.5151 431.594 64.584 430.292 65.56C428.991 66.4895 427.271 67.2564 425.134 67.8606C423.042 68.4183 420.765 68.6971 418.302 68.6971C414.63 68.6971 411.446 67.8606 408.751 66.1874C406.055 64.4678 403.964 62.144 402.477 59.2161C401.036 56.2881 400.315 53.0115 400.315 49.3864C400.315 45.5754 401.082 42.2291 402.616 39.3476C404.196 36.4197 406.357 34.1423 409.099 32.5157C411.888 30.8426 415.072 30.006 418.65 30.006ZM466.65 30.7031C467.859 30.7031 468.858 31.1214 469.648 31.958C470.438 32.7481 470.833 33.7473 470.833 34.9557V64.584C470.833 68.8598 470.02 72.2525 468.393 74.7622C466.813 77.3184 464.675 79.1542 461.979 80.2696C459.284 81.385 456.263 81.9428 452.917 81.9428C451.429 81.9428 449.849 81.8266 448.176 81.5942C446.503 81.3618 445.132 81.0132 444.063 80.5485C442.669 79.9443 441.693 79.1774 441.135 78.2479C440.624 77.3649 440.531 76.4121 440.856 75.3897C441.274 74.0419 441.948 73.1123 442.878 72.6011C443.807 72.1363 444.783 72.0899 445.806 72.4617C446.55 72.6941 447.526 73.0426 448.734 73.5074C449.942 74.0186 451.337 74.2742 452.917 74.2742C455.055 74.2742 456.821 73.9721 458.215 73.368C459.656 72.8102 460.725 71.8343 461.422 70.44C462.165 69.0922 462.537 67.2331 462.537 64.8629V60.1921L464.001 61.8652C463.211 63.3989 462.212 64.677 461.003 65.6994C459.842 66.6754 458.447 67.4191 456.821 67.9303C455.194 68.4415 453.335 68.6971 451.244 68.6971C448.78 68.6971 446.619 68.1394 444.76 67.024C442.948 65.8621 441.53 64.2819 440.508 62.2835C439.485 60.2385 438.974 57.9147 438.974 55.3121V34.9557C438.974 33.7473 439.369 32.7481 440.159 31.958C440.949 31.1214 441.948 30.7031 443.157 30.7031C444.365 30.7031 445.364 31.1214 446.154 31.958C446.945 32.7481 447.34 33.7473 447.34 34.9557V52.8024C447.34 55.8233 447.99 57.9612 449.292 59.2161C450.639 60.4244 452.498 61.0286 454.869 61.0286C456.495 61.0286 457.866 60.7265 458.982 60.1223C460.097 59.4717 460.957 58.5422 461.561 57.3338C462.165 56.0789 462.467 54.5685 462.467 52.8024V34.9557C462.467 33.7473 462.863 32.7481 463.653 31.958C464.443 31.1214 465.442 30.7031 466.65 30.7031Z" fill="#1D1D1D"/>
<path d="M258.212 117.86C258.658 118.158 258.919 118.548 258.993 119.032C259.067 119.478 258.956 119.924 258.658 120.37C258.398 120.705 258.063 120.891 257.654 120.928C257.245 120.965 256.855 120.891 256.483 120.705C255.07 119.775 253.546 119.05 251.91 118.53C250.311 118.009 248.582 117.749 246.723 117.749C244.455 117.749 242.336 118.158 240.365 118.976C238.432 119.757 236.74 120.909 235.29 122.434C233.84 123.921 232.706 125.687 231.888 127.732C231.107 129.777 230.717 132.026 230.717 134.48C230.717 137.008 231.126 139.314 231.944 141.396C232.762 143.441 233.896 145.207 235.346 146.694C236.833 148.181 238.544 149.315 240.477 150.096C242.41 150.877 244.492 151.267 246.723 151.267C248.545 151.267 250.256 151.007 251.854 150.486C253.49 149.966 255.015 149.259 256.427 148.367C256.799 148.144 257.19 148.07 257.599 148.144C258.045 148.181 258.398 148.386 258.658 148.758C258.993 149.167 259.105 149.613 258.993 150.096C258.919 150.542 258.677 150.895 258.268 151.156C257.338 151.751 256.242 152.308 254.977 152.829C253.713 153.349 252.375 153.758 250.962 154.056C249.549 154.39 248.136 154.558 246.723 154.558C244.046 154.558 241.537 154.074 239.194 153.108C236.852 152.141 234.77 150.784 232.948 149.036C231.126 147.252 229.695 145.132 228.654 142.678C227.65 140.225 227.148 137.492 227.148 134.48C227.148 131.58 227.65 128.922 228.654 126.505C229.657 124.051 231.052 121.932 232.836 120.147C234.621 118.362 236.703 116.968 239.083 115.964C241.462 114.96 244.009 114.458 246.723 114.458C248.843 114.458 250.888 114.756 252.858 115.351C254.829 115.946 256.613 116.782 258.212 117.86ZM267.544 154C267.023 154 266.614 153.833 266.317 153.498C266.019 153.163 265.871 152.773 265.871 152.327V127.341C265.871 126.895 266.019 126.505 266.317 126.17C266.651 125.836 267.06 125.668 267.544 125.668C268.027 125.668 268.418 125.836 268.715 126.17C269.05 126.505 269.217 126.895 269.217 127.341V135.707L268.38 135.874C268.492 134.573 268.808 133.29 269.328 132.026C269.886 130.725 270.63 129.535 271.559 128.457C272.489 127.379 273.586 126.505 274.85 125.836C276.151 125.166 277.601 124.832 279.2 124.832C279.869 124.832 280.52 124.98 281.152 125.278C281.784 125.538 282.1 125.984 282.1 126.616C282.1 127.174 281.951 127.602 281.654 127.899C281.356 128.197 281.003 128.345 280.594 128.345C280.26 128.345 279.888 128.252 279.479 128.066C279.107 127.881 278.605 127.788 277.973 127.788C276.932 127.788 275.891 128.104 274.85 128.736C273.809 129.331 272.861 130.149 272.005 131.19C271.15 132.231 270.462 133.402 269.942 134.703C269.459 135.967 269.217 137.25 269.217 138.551V152.327C269.217 152.773 269.05 153.163 268.715 153.498C268.38 153.833 267.99 154 267.544 154ZM299.518 154.558C296.655 154.558 294.126 153.944 291.933 152.717C289.739 151.49 288.029 149.78 286.802 147.586C285.575 145.393 284.961 142.827 284.961 139.89C284.961 136.73 285.575 134.034 286.802 131.803C288.066 129.572 289.683 127.862 291.654 126.672C293.662 125.445 295.781 124.832 298.012 124.832C299.648 124.832 301.228 125.129 302.752 125.724C304.314 126.282 305.69 127.137 306.879 128.29C308.106 129.405 309.073 130.781 309.779 132.417C310.523 134.053 310.932 135.949 311.006 138.105C310.969 138.551 310.783 138.942 310.449 139.276C310.114 139.574 309.724 139.723 309.277 139.723H286.913L286.244 136.711H308.218L307.493 137.38V136.265C307.344 134.517 306.786 133.03 305.82 131.803C304.853 130.576 303.682 129.647 302.306 129.015C300.93 128.383 299.499 128.066 298.012 128.066C296.896 128.066 295.744 128.29 294.554 128.736C293.401 129.182 292.342 129.888 291.375 130.855C290.445 131.785 289.683 132.993 289.088 134.48C288.493 135.93 288.196 137.659 288.196 139.667C288.196 141.861 288.642 143.85 289.535 145.634C290.427 147.419 291.71 148.832 293.383 149.873C295.093 150.914 297.119 151.435 299.462 151.435C300.763 151.435 301.934 151.249 302.975 150.877C304.016 150.505 304.927 150.022 305.708 149.427C306.489 148.795 307.14 148.144 307.66 147.475C308.069 147.14 308.478 146.973 308.887 146.973C309.259 146.973 309.575 147.122 309.835 147.419C310.133 147.716 310.281 148.051 310.281 148.423C310.281 148.869 310.095 149.259 309.724 149.594C308.608 150.933 307.158 152.104 305.374 153.108C303.589 154.074 301.637 154.558 299.518 154.558ZM342.313 125.501C342.796 125.501 343.186 125.668 343.484 126.003C343.818 126.338 343.986 126.747 343.986 127.23V152.327C343.986 152.773 343.818 153.163 343.484 153.498C343.149 153.833 342.759 154 342.313 154C341.829 154 341.42 153.833 341.086 153.498C340.788 153.163 340.64 152.773 340.64 152.327V145.69L341.588 145.244C341.588 146.285 341.29 147.345 340.695 148.423C340.138 149.501 339.357 150.505 338.353 151.435C337.349 152.364 336.159 153.126 334.784 153.721C333.445 154.279 331.995 154.558 330.433 154.558C327.905 154.558 325.637 153.907 323.629 152.606C321.659 151.304 320.097 149.52 318.945 147.252C317.829 144.984 317.271 142.437 317.271 139.611C317.271 136.711 317.848 134.164 319 131.97C320.153 129.74 321.715 127.992 323.685 126.728C325.656 125.464 327.887 124.832 330.378 124.832C331.976 124.832 333.464 125.111 334.839 125.668C336.252 126.226 337.479 126.988 338.52 127.955C339.561 128.922 340.361 130.037 340.918 131.301C341.513 132.528 341.811 133.811 341.811 135.149L340.64 134.313V127.23C340.64 126.747 340.788 126.338 341.086 126.003C341.42 125.668 341.829 125.501 342.313 125.501ZM330.712 151.435C332.683 151.435 334.43 150.933 335.955 149.929C337.479 148.888 338.669 147.475 339.524 145.69C340.416 143.868 340.863 141.842 340.863 139.611C340.863 137.417 340.416 135.447 339.524 133.699C338.669 131.952 337.479 130.558 335.955 129.517C334.43 128.475 332.683 127.955 330.712 127.955C328.779 127.955 327.031 128.457 325.47 129.461C323.945 130.465 322.737 131.84 321.845 133.588C320.99 135.335 320.562 137.343 320.562 139.611C320.562 141.842 320.99 143.868 321.845 145.69C322.737 147.475 323.945 148.888 325.47 149.929C326.994 150.933 328.742 151.435 330.712 151.435ZM351.484 125.613H364.479C364.925 125.613 365.297 125.78 365.594 126.114C365.891 126.412 366.04 126.784 366.04 127.23C366.04 127.639 365.891 127.992 365.594 128.29C365.297 128.587 364.925 128.736 364.479 128.736H351.484C351.038 128.736 350.647 128.587 350.313 128.29C350.015 127.955 349.867 127.583 349.867 127.174C349.867 126.728 350.015 126.356 350.313 126.059C350.647 125.761 351.038 125.613 351.484 125.613ZM357.228 117.749C357.712 117.749 358.102 117.916 358.4 118.251C358.734 118.585 358.901 118.976 358.901 119.422V147.419C358.901 148.46 359.032 149.241 359.292 149.761C359.589 150.282 359.961 150.635 360.407 150.821C360.853 150.97 361.3 151.044 361.746 151.044C362.043 151.044 362.304 151.007 362.527 150.933C362.787 150.821 363.066 150.765 363.363 150.765C363.698 150.765 363.977 150.895 364.2 151.156C364.46 151.416 364.59 151.751 364.59 152.16C364.59 152.68 364.293 153.126 363.698 153.498C363.103 153.833 362.396 154 361.579 154C361.244 154 360.742 153.981 360.073 153.944C359.403 153.87 358.716 153.665 358.009 153.331C357.303 152.959 356.708 152.327 356.224 151.435C355.778 150.542 355.555 149.259 355.555 147.586V119.422C355.555 118.976 355.704 118.585 356.001 118.251C356.336 117.916 356.745 117.749 357.228 117.749ZM376.016 152.327C376.016 152.773 375.848 153.163 375.514 153.498C375.179 153.833 374.789 154 374.343 154C373.859 154 373.45 153.833 373.116 153.498C372.818 153.163 372.67 152.773 372.67 152.327V126.672C372.67 126.226 372.818 125.836 373.116 125.501C373.45 125.166 373.859 124.999 374.343 124.999C374.826 124.999 375.216 125.166 375.514 125.501C375.848 125.836 376.016 126.226 376.016 126.672V152.327ZM374.343 121.262C373.562 121.262 372.967 121.095 372.558 120.76C372.186 120.389 372 119.868 372 119.199V118.641C372 117.972 372.205 117.47 372.614 117.135C373.06 116.764 373.655 116.578 374.398 116.578C375.105 116.578 375.644 116.764 376.016 117.135C376.425 117.47 376.629 117.972 376.629 118.641V119.199C376.629 119.868 376.425 120.389 376.016 120.76C375.644 121.095 375.086 121.262 374.343 121.262ZM384.597 124.888C384.895 124.888 385.192 124.98 385.489 125.166C385.787 125.352 386.01 125.631 386.159 126.003L395.919 149.204L395.194 149.65L405.177 126.003C405.474 125.259 406.013 124.906 406.794 124.943C407.166 124.943 407.519 125.073 407.854 125.334C408.188 125.557 408.356 125.891 408.356 126.338C408.356 126.561 408.318 126.747 408.244 126.895C408.207 127.007 408.17 127.137 408.132 127.286L397.201 152.94C396.904 153.61 396.402 153.963 395.696 154C395.361 154.037 395.026 153.963 394.692 153.777C394.394 153.554 394.171 153.275 394.022 152.94L383.036 127.286C382.998 127.211 382.961 127.1 382.924 126.951C382.887 126.802 382.868 126.654 382.868 126.505C382.868 126.096 383.017 125.724 383.314 125.389C383.612 125.055 384.039 124.888 384.597 124.888ZM427.954 154.558C425.091 154.558 422.563 153.944 420.369 152.717C418.176 151.49 416.465 149.78 415.238 147.586C414.012 145.393 413.398 142.827 413.398 139.89C413.398 136.73 414.012 134.034 415.238 131.803C416.503 129.572 418.12 127.862 420.091 126.672C422.098 125.445 424.218 124.832 426.448 124.832C428.084 124.832 429.665 125.129 431.189 125.724C432.751 126.282 434.126 127.137 435.316 128.29C436.543 129.405 437.51 130.781 438.216 132.417C438.96 134.053 439.369 135.949 439.443 138.105C439.406 138.551 439.22 138.942 438.885 139.276C438.551 139.574 438.16 139.723 437.714 139.723H415.35L414.681 136.711H436.655L435.93 137.38V136.265C435.781 134.517 435.223 133.03 434.256 131.803C433.29 130.576 432.119 129.647 430.743 129.015C429.367 128.383 427.936 128.066 426.448 128.066C425.333 128.066 424.18 128.29 422.991 128.736C421.838 129.182 420.778 129.888 419.812 130.855C418.882 131.785 418.12 132.993 417.525 134.48C416.93 135.93 416.633 137.659 416.633 139.667C416.633 141.861 417.079 143.85 417.971 145.634C418.864 147.419 420.146 148.832 421.819 149.873C423.53 150.914 425.556 151.435 427.899 151.435C429.2 151.435 430.371 151.249 431.412 150.877C432.453 150.505 433.364 150.022 434.145 149.427C434.926 148.795 435.576 148.144 436.097 147.475C436.506 147.14 436.915 146.973 437.324 146.973C437.696 146.973 438.012 147.122 438.272 147.419C438.569 147.716 438.718 148.051 438.718 148.423C438.718 148.869 438.532 149.259 438.16 149.594C437.045 150.933 435.595 152.104 433.81 153.108C432.026 154.074 430.074 154.558 427.954 154.558Z" fill="#1D1D1D"/>
</svg>
